Simulation
nRows=24
nColumns=15
endheader
time  TH_x TH_y TH_z SC_y  SC_z  SC_x  AC_y  AC_z  AC_x  GH_y  GH_z  GH_yy  EL_x  PS_y
0.0  0.000000  0.000000  0.000000  -27.434581733275245  -1.455938935116622  6.9798027412455195  54.23796386894765  0.7631114755636269  -11.018763131724755  34.90033382060219  6.182765171971725  7.072644151671775  26.87525398143178  0.000000
0.039  0.000000  0.000000  0.000000  -27.138192925859887  -1.1034568939547995  6.737613714593149  53.77739012268066  1.3148084134117004  -10.993467541050975  34.92221485361565  6.357462723086545  6.990526225450506  26.38800511898758  0.000000
0.078  0.000000  0.000000  0.000000  -26.698095454012556  -0.9215403110896351  6.399595956348901  53.230330316392966  1.69650953495815  -11.08746734964447  36.13368151028619  6.48572721845778  5.693628107530666  25.78649723958014  0.000000
0.11699999999999999  0.000000  0.000000  0.000000  -26.399431403410787  -0.7690239045996069  6.058943584824456  52.86007622720597  1.9106769534461703  -11.133644340379936  37.89558149841167  6.696210820272877  3.748112143126146  25.29931925272119  0.000000
0.156  0.000000  0.000000  0.000000  -26.185896740168626  -0.6099743320333169  5.798415215847443  52.663696041957685  1.9905765748476496  -11.010242832681547  39.484295637517704  7.029271035950943  1.878095996142539  24.95784586451789  0.000000
0.195  0.000000  0.000000  0.000000  -26.075521039088372  -0.3825714089174618  5.6476855438786835  52.585225022160714  1.9444062365579788  -10.624098784280601  40.87847301376392  7.553268466663117  0.07650270638016982  24.767754245701795  0.000000
0.23399999999999999  0.000000  0.000000  0.000000  -26.102297088201023  -0.06947641072000686  5.571223791982398  52.79922254250831  1.768546813494288  -9.934624875396164  41.480959250354516  8.330273303769806  -1.1871196438467149  24.698090248617838  0.000000
0.273  0.000000  0.000000  0.000000  -26.260420809006636  0.25690454024050746  5.53275771807537  53.44480151731831  1.515130523201713  -9.0008232171976  40.858837080219125  9.34591964407733  -1.545098244696039  24.665164645522456  0.000000
0.312  0.000000  0.000000  0.000000  -26.532566278186014  0.5268947013723094  5.51321688276068  54.32528260437277  1.3339010561550106  -7.990456487563624  39.95860733121744  10.576516415282981  -1.8756647854485604  24.679271828494713  0.000000
0.351  0.000000  0.000000  0.000000  -26.85529752593051  0.7293469460839529  5.493897988001142  55.227769156426  1.3227438348357465  -7.043501776203262  39.6918175278604  12.044930927500308  -2.9930356678611854  24.74481218436421  0.000000
0.39  0.000000  0.000000  0.000000  -27.156136192323928  0.8651352333539755  5.475973715358256  56.09272682116998  1.504333837713113  -6.2160558722528805  40.09754849927518  13.758915449019915  -4.906672558480711  24.8531720701312  0.000000
0.429  0.000000  0.000000  0.000000  -27.41453424281964  0.9496641520431152  5.4801944650609915  56.915004723157544  1.8457530892912075  -5.506127856043645  40.909691797718295  15.713225060255107  -7.337472132046407  24.974342056559454  0.000000
0.46799999999999997  0.000000  0.000000  0.000000  -27.616326886902574  0.998379462731242  5.529769112845078  57.68678650784888  2.2994799518778675  -4.913535950390358  41.91724494720897  17.888933661474884  -10.066990648473247  25.094727790304994  0.000000
0.507  0.000000  0.000000  0.000000  -27.75799988025367  1.034065066700481  5.632255885646769  58.40712039878505  2.8265744424963315  -4.417667224803488  42.97485481858042  20.24826487184405  -12.924298738505392  25.197902841262565  0.000000
0.546  0.000000  0.000000  0.000000  -27.836194738162604  1.0809082413081303  5.792649505323202  59.0677929776927  3.3960711336858806  -3.997960663101256  44.00373459043207  22.743467901583355  -15.807305991732223  25.273850447648847  0.000000
0.585  0.000000  0.000000  0.000000  -27.858949082876176  1.157089029770142  6.013080450565598  59.67110166156182  3.987817012539444  -3.6313271987856957  44.9496534467994  25.32527738121983  -18.626997928385276  25.312047214509132  0.000000
0.624  0.000000  0.000000  0.000000  -27.835646132199674  1.2778481344087718  6.29225963347426  60.21549131375206  4.5868019499376285  -3.2971161315129938  45.78817273256468  27.951016052508315  -21.330477149073605  25.31239329551213  0.000000
0.663  0.000000  0.000000  0.000000  -27.782685853935924  1.4511247190691943  6.629729972664366  60.70595079811733  5.177456774520734  -2.9782893005057463  46.5064010644763  30.586434007548114  -23.877761741031986  25.278693662108317  0.000000
0.702  0.000000  0.000000  0.000000  -27.71649936055625  1.6797474754234714  7.021030074943888  61.14454758165388  5.747688247432393  -2.659908650417598  47.10650598335625  33.203548321011304  -26.249539392336143  25.219566867542838  0.000000
0.741  0.000000  0.000000  0.000000  -27.651485068249023  1.963213539285047  7.45863225493862  61.536128332783974  6.28857711556738  -2.3300205004077683  47.59557277932148  35.779200623406  -28.43250438269847  25.14320070490197  0.000000
0.78  0.000000  0.000000  0.000000  -27.60123490955141  2.3006324161791043  7.9328456860778225  61.882486996390284  6.794436552657978  -1.9777471946116678  47.98751957272607  38.293576711992074  -30.42188065666914  25.06010264756273  0.000000
0.819  0.000000  0.000000  0.000000  -27.57411152482187  2.6875628617320486  8.432449598976238  62.18669832038793  7.26196797950295  -1.5970566645919533  48.29235471662947  40.73102592706594  -32.21415150358872  24.979616042254193  0.000000
0.858  0.000000  0.000000  0.000000  -27.580117651020483  3.1180191858632225  8.946597082197552  62.45001092017995  7.6911067192389835  -1.1837751288473874  48.51961763521117  43.078381449277934  -33.81016203319894  24.90799554146261  0.000000
0.897  0.000000  0.000000  0.000000  -27.62780361580953  3.584445348891813  9.466772195048094  62.677450331910954  8.088696313640446  -0.7403332850582913  48.66944453972446  45.321246226994525  -35.2114207075301  24.848198428052896  0.000000
